<mxfile host="app.diagrams.net" modified="2023-08-02T19:22:43.262Z" agent="Mozilla/5.0 (Windows NT 10.0; Win64; x64) AppleWebKit/537.36 (KHTML, like Gecko) Chrome/114.0.0.0 Safari/537.36 OPR/100.0.0.0" etag="c5Y9vDv7KifssdNtStjl" version="21.6.6" type="device">
  <diagram name="Page-1" id="QI7qixuwSl6rum5H3rMc">
    <mxGraphModel dx="1631" dy="1510" grid="1" gridSize="10" guides="1" tooltips="1" connect="1" arrows="1" fold="1" page="1" pageScale="1" pageWidth="850" pageHeight="1100" math="0" shadow="0">
      <root>
        <mxCell id="0" />
        <mxCell id="1" parent="0" />
        <mxCell id="DgEjmwJFmkT8wPoqMNxU-25" value="" style="edgeStyle=orthogonalEdgeStyle;rounded=0;orthogonalLoop=1;jettySize=auto;html=1;" edge="1" parent="1" source="DgEjmwJFmkT8wPoqMNxU-1" target="DgEjmwJFmkT8wPoqMNxU-2">
          <mxGeometry relative="1" as="geometry" />
        </mxCell>
        <mxCell id="DgEjmwJFmkT8wPoqMNxU-1" value="START" style="ellipse;whiteSpace=wrap;html=1;fillColor=#13E80C;strokeColor=#61FF05;" vertex="1" parent="1">
          <mxGeometry x="-742.5" y="-160" width="135" height="60" as="geometry" />
        </mxCell>
        <mxCell id="DgEjmwJFmkT8wPoqMNxU-26" value="" style="edgeStyle=orthogonalEdgeStyle;rounded=0;orthogonalLoop=1;jettySize=auto;html=1;" edge="1" parent="1" source="DgEjmwJFmkT8wPoqMNxU-2" target="DgEjmwJFmkT8wPoqMNxU-5">
          <mxGeometry relative="1" as="geometry" />
        </mxCell>
        <mxCell id="DgEjmwJFmkT8wPoqMNxU-2" value="&lt;font style=&quot;font-size: 17px;&quot;&gt;Log in to the Website&lt;/font&gt;" style="rounded=1;whiteSpace=wrap;html=1;fillColor=#FCA4DF;strokeColor=#BF588B;" vertex="1" parent="1">
          <mxGeometry x="-820" y="-30" width="290" height="60" as="geometry" />
        </mxCell>
        <mxCell id="DgEjmwJFmkT8wPoqMNxU-31" value="" style="edgeStyle=orthogonalEdgeStyle;rounded=0;orthogonalLoop=1;jettySize=auto;html=1;" edge="1" parent="1" source="DgEjmwJFmkT8wPoqMNxU-3" target="DgEjmwJFmkT8wPoqMNxU-7">
          <mxGeometry relative="1" as="geometry" />
        </mxCell>
        <mxCell id="DgEjmwJFmkT8wPoqMNxU-3" value="&lt;font style=&quot;font-size: 16px;&quot;&gt;Name the Repository&lt;/font&gt;" style="rounded=1;whiteSpace=wrap;html=1;fillColor=#dae8fc;strokeColor=#6c8ebf;" vertex="1" parent="1">
          <mxGeometry x="-820" y="460" width="290" height="60" as="geometry" />
        </mxCell>
        <mxCell id="DgEjmwJFmkT8wPoqMNxU-30" style="edgeStyle=orthogonalEdgeStyle;rounded=0;orthogonalLoop=1;jettySize=auto;html=1;entryX=1;entryY=0.5;entryDx=0;entryDy=0;" edge="1" parent="1" source="DgEjmwJFmkT8wPoqMNxU-4" target="DgEjmwJFmkT8wPoqMNxU-3">
          <mxGeometry relative="1" as="geometry">
            <Array as="points">
              <mxPoint x="-330" y="490" />
            </Array>
          </mxGeometry>
        </mxCell>
        <mxCell id="DgEjmwJFmkT8wPoqMNxU-4" value="&lt;font style=&quot;font-size: 16px;&quot;&gt;Create Online Repository&lt;/font&gt;" style="rounded=1;whiteSpace=wrap;html=1;fillColor=#dae8fc;strokeColor=#6c8ebf;" vertex="1" parent="1">
          <mxGeometry x="-470" y="270" width="290" height="60" as="geometry" />
        </mxCell>
        <mxCell id="DgEjmwJFmkT8wPoqMNxU-27" value="" style="edgeStyle=orthogonalEdgeStyle;rounded=0;orthogonalLoop=1;jettySize=auto;html=1;" edge="1" parent="1" source="DgEjmwJFmkT8wPoqMNxU-5" target="DgEjmwJFmkT8wPoqMNxU-6">
          <mxGeometry relative="1" as="geometry" />
        </mxCell>
        <mxCell id="DgEjmwJFmkT8wPoqMNxU-5" value="&lt;font style=&quot;font-size: 16px;&quot;&gt;Open Dashboard&amp;nbsp;&lt;/font&gt;" style="rounded=1;whiteSpace=wrap;html=1;fillColor=#dae8fc;strokeColor=#6c8ebf;" vertex="1" parent="1">
          <mxGeometry x="-820" y="100" width="290" height="60" as="geometry" />
        </mxCell>
        <mxCell id="DgEjmwJFmkT8wPoqMNxU-28" value="" style="edgeStyle=orthogonalEdgeStyle;rounded=0;orthogonalLoop=1;jettySize=auto;html=1;" edge="1" parent="1" source="DgEjmwJFmkT8wPoqMNxU-6" target="DgEjmwJFmkT8wPoqMNxU-4">
          <mxGeometry relative="1" as="geometry" />
        </mxCell>
        <mxCell id="DgEjmwJFmkT8wPoqMNxU-29" value="" style="edgeStyle=orthogonalEdgeStyle;rounded=0;orthogonalLoop=1;jettySize=auto;html=1;" edge="1" parent="1" source="DgEjmwJFmkT8wPoqMNxU-6" target="DgEjmwJFmkT8wPoqMNxU-3">
          <mxGeometry relative="1" as="geometry" />
        </mxCell>
        <mxCell id="DgEjmwJFmkT8wPoqMNxU-6" value="&lt;span style=&quot;font-size: 16px;&quot;&gt;Repository Exists??&lt;/span&gt;" style="rhombus;whiteSpace=wrap;html=1;fillColor=#f8cecc;strokeColor=#b85450;" vertex="1" parent="1">
          <mxGeometry x="-810" y="230" width="270" height="140" as="geometry" />
        </mxCell>
        <mxCell id="DgEjmwJFmkT8wPoqMNxU-32" value="" style="edgeStyle=orthogonalEdgeStyle;rounded=0;orthogonalLoop=1;jettySize=auto;html=1;" edge="1" parent="1" source="DgEjmwJFmkT8wPoqMNxU-7" target="DgEjmwJFmkT8wPoqMNxU-8">
          <mxGeometry relative="1" as="geometry" />
        </mxCell>
        <mxCell id="DgEjmwJFmkT8wPoqMNxU-7" value="&lt;span style=&quot;font-size: 16px;&quot;&gt;Open Repository&lt;/span&gt;" style="rounded=1;whiteSpace=wrap;html=1;labelBackgroundColor=none;fillColor=#dae8fc;strokeColor=#6c8ebf;" vertex="1" parent="1">
          <mxGeometry x="-820" y="600" width="290" height="60" as="geometry" />
        </mxCell>
        <mxCell id="DgEjmwJFmkT8wPoqMNxU-33" value="" style="edgeStyle=orthogonalEdgeStyle;rounded=0;orthogonalLoop=1;jettySize=auto;html=1;" edge="1" parent="1" source="DgEjmwJFmkT8wPoqMNxU-8" target="DgEjmwJFmkT8wPoqMNxU-10">
          <mxGeometry relative="1" as="geometry" />
        </mxCell>
        <mxCell id="DgEjmwJFmkT8wPoqMNxU-34" value="" style="edgeStyle=orthogonalEdgeStyle;rounded=0;orthogonalLoop=1;jettySize=auto;html=1;" edge="1" parent="1" source="DgEjmwJFmkT8wPoqMNxU-8" target="DgEjmwJFmkT8wPoqMNxU-9">
          <mxGeometry relative="1" as="geometry" />
        </mxCell>
        <mxCell id="DgEjmwJFmkT8wPoqMNxU-8" value="&lt;span style=&quot;font-size: 16px;&quot;&gt;Wiki Exists??&lt;/span&gt;" style="rhombus;whiteSpace=wrap;html=1;fillColor=#f8cecc;strokeColor=#b85450;" vertex="1" parent="1">
          <mxGeometry x="-810" y="730" width="270" height="140" as="geometry" />
        </mxCell>
        <mxCell id="DgEjmwJFmkT8wPoqMNxU-35" style="edgeStyle=orthogonalEdgeStyle;rounded=0;orthogonalLoop=1;jettySize=auto;html=1;entryX=0.533;entryY=0.971;entryDx=0;entryDy=0;entryPerimeter=0;" edge="1" parent="1" source="DgEjmwJFmkT8wPoqMNxU-9" target="DgEjmwJFmkT8wPoqMNxU-10">
          <mxGeometry relative="1" as="geometry" />
        </mxCell>
        <mxCell id="DgEjmwJFmkT8wPoqMNxU-9" value="&lt;span style=&quot;font-size: 16px;&quot;&gt;Create new Wiki&lt;/span&gt;" style="rounded=1;whiteSpace=wrap;html=1;labelBackgroundColor=none;fillColor=#dae8fc;strokeColor=#6c8ebf;" vertex="1" parent="1">
          <mxGeometry x="-820" y="920" width="290" height="60" as="geometry" />
        </mxCell>
        <mxCell id="DgEjmwJFmkT8wPoqMNxU-36" value="" style="edgeStyle=orthogonalEdgeStyle;rounded=0;orthogonalLoop=1;jettySize=auto;html=1;" edge="1" parent="1" source="DgEjmwJFmkT8wPoqMNxU-10" target="DgEjmwJFmkT8wPoqMNxU-12">
          <mxGeometry relative="1" as="geometry" />
        </mxCell>
        <mxCell id="DgEjmwJFmkT8wPoqMNxU-10" value="&lt;span style=&quot;font-size: 16px;&quot;&gt;Modify Wiki&lt;/span&gt;" style="rounded=1;whiteSpace=wrap;html=1;labelBackgroundColor=none;fillColor=#dae8fc;strokeColor=#6c8ebf;" vertex="1" parent="1">
          <mxGeometry x="-470" y="770" width="290" height="60" as="geometry" />
        </mxCell>
        <mxCell id="DgEjmwJFmkT8wPoqMNxU-11" value="&lt;font style=&quot;font-size: 16px;&quot;&gt;No&lt;/font&gt;" style="text;html=1;strokeColor=none;fillColor=none;align=center;verticalAlign=middle;whiteSpace=wrap;rounded=0;" vertex="1" parent="1">
          <mxGeometry x="-667.5" y="880" width="60" height="30" as="geometry" />
        </mxCell>
        <mxCell id="DgEjmwJFmkT8wPoqMNxU-37" value="" style="edgeStyle=orthogonalEdgeStyle;rounded=0;orthogonalLoop=1;jettySize=auto;html=1;" edge="1" parent="1" source="DgEjmwJFmkT8wPoqMNxU-12" target="DgEjmwJFmkT8wPoqMNxU-14">
          <mxGeometry relative="1" as="geometry" />
        </mxCell>
        <mxCell id="DgEjmwJFmkT8wPoqMNxU-38" value="" style="edgeStyle=orthogonalEdgeStyle;rounded=0;orthogonalLoop=1;jettySize=auto;html=1;" edge="1" parent="1" source="DgEjmwJFmkT8wPoqMNxU-12" target="DgEjmwJFmkT8wPoqMNxU-13">
          <mxGeometry relative="1" as="geometry" />
        </mxCell>
        <mxCell id="DgEjmwJFmkT8wPoqMNxU-12" value="&lt;span style=&quot;font-size: 16px;&quot;&gt;Documentations/Pages Exists??&lt;/span&gt;" style="rhombus;whiteSpace=wrap;html=1;fillColor=#f8cecc;strokeColor=#b85450;" vertex="1" parent="1">
          <mxGeometry x="-90" y="730" width="270" height="140" as="geometry" />
        </mxCell>
        <mxCell id="DgEjmwJFmkT8wPoqMNxU-40" value="" style="edgeStyle=orthogonalEdgeStyle;rounded=0;orthogonalLoop=1;jettySize=auto;html=1;" edge="1" parent="1" source="DgEjmwJFmkT8wPoqMNxU-13" target="DgEjmwJFmkT8wPoqMNxU-17">
          <mxGeometry relative="1" as="geometry" />
        </mxCell>
        <mxCell id="DgEjmwJFmkT8wPoqMNxU-13" value="&lt;span style=&quot;font-size: 16px;&quot;&gt;Edit Pages and Delete if needed&lt;/span&gt;" style="rounded=1;whiteSpace=wrap;html=1;labelBackgroundColor=none;fillColor=#dae8fc;strokeColor=#6c8ebf;" vertex="1" parent="1">
          <mxGeometry x="240" y="770" width="290" height="60" as="geometry" />
        </mxCell>
        <mxCell id="DgEjmwJFmkT8wPoqMNxU-39" style="edgeStyle=orthogonalEdgeStyle;rounded=0;orthogonalLoop=1;jettySize=auto;html=1;" edge="1" parent="1" source="DgEjmwJFmkT8wPoqMNxU-14" target="DgEjmwJFmkT8wPoqMNxU-13">
          <mxGeometry relative="1" as="geometry" />
        </mxCell>
        <mxCell id="DgEjmwJFmkT8wPoqMNxU-14" value="&lt;span style=&quot;font-size: 16px;&quot;&gt;Add new Pages&lt;/span&gt;" style="rounded=1;whiteSpace=wrap;html=1;labelBackgroundColor=none;fillColor=#dae8fc;strokeColor=#6c8ebf;" vertex="1" parent="1">
          <mxGeometry x="-100" y="920" width="290" height="60" as="geometry" />
        </mxCell>
        <mxCell id="DgEjmwJFmkT8wPoqMNxU-15" value="&lt;font style=&quot;font-size: 16px;&quot;&gt;No&lt;/font&gt;" style="text;html=1;strokeColor=none;fillColor=none;align=center;verticalAlign=middle;whiteSpace=wrap;rounded=0;" vertex="1" parent="1">
          <mxGeometry x="50" y="880" width="60" height="30" as="geometry" />
        </mxCell>
        <mxCell id="DgEjmwJFmkT8wPoqMNxU-43" style="edgeStyle=orthogonalEdgeStyle;rounded=0;orthogonalLoop=1;jettySize=auto;html=1;" edge="1" parent="1" source="DgEjmwJFmkT8wPoqMNxU-17" target="DgEjmwJFmkT8wPoqMNxU-41">
          <mxGeometry relative="1" as="geometry" />
        </mxCell>
        <mxCell id="DgEjmwJFmkT8wPoqMNxU-44" value="" style="edgeStyle=orthogonalEdgeStyle;rounded=0;orthogonalLoop=1;jettySize=auto;html=1;" edge="1" parent="1" source="DgEjmwJFmkT8wPoqMNxU-17" target="DgEjmwJFmkT8wPoqMNxU-22">
          <mxGeometry relative="1" as="geometry" />
        </mxCell>
        <mxCell id="DgEjmwJFmkT8wPoqMNxU-17" value="&lt;span style=&quot;font-size: 16px;&quot;&gt;Publish Pages??&lt;/span&gt;" style="rhombus;whiteSpace=wrap;html=1;fillColor=#f8cecc;strokeColor=#b85450;" vertex="1" parent="1">
          <mxGeometry x="610" y="730" width="270" height="140" as="geometry" />
        </mxCell>
        <mxCell id="DgEjmwJFmkT8wPoqMNxU-47" value="" style="edgeStyle=orthogonalEdgeStyle;rounded=0;orthogonalLoop=1;jettySize=auto;html=1;" edge="1" parent="1" source="DgEjmwJFmkT8wPoqMNxU-18">
          <mxGeometry relative="1" as="geometry">
            <mxPoint x="745" y="1320" as="targetPoint" />
          </mxGeometry>
        </mxCell>
        <mxCell id="DgEjmwJFmkT8wPoqMNxU-18" value="&lt;span style=&quot;font-size: 16px;&quot;&gt;Count &amp;amp; Approve all the wikis &amp;amp; pages&lt;/span&gt;" style="rounded=1;whiteSpace=wrap;html=1;labelBackgroundColor=none;fillColor=#dae8fc;strokeColor=#6c8ebf;" vertex="1" parent="1">
          <mxGeometry x="600" y="1200" width="290" height="60" as="geometry" />
        </mxCell>
        <mxCell id="DgEjmwJFmkT8wPoqMNxU-19" value="&lt;font style=&quot;font-size: 16px;&quot;&gt;No&lt;/font&gt;" style="text;html=1;strokeColor=none;fillColor=none;align=center;verticalAlign=middle;whiteSpace=wrap;rounded=0;" vertex="1" parent="1">
          <mxGeometry x="880" y="760" width="60" height="30" as="geometry" />
        </mxCell>
        <mxCell id="DgEjmwJFmkT8wPoqMNxU-46" value="" style="edgeStyle=orthogonalEdgeStyle;rounded=0;orthogonalLoop=1;jettySize=auto;html=1;" edge="1" parent="1" source="DgEjmwJFmkT8wPoqMNxU-21" target="DgEjmwJFmkT8wPoqMNxU-18">
          <mxGeometry relative="1" as="geometry" />
        </mxCell>
        <mxCell id="DgEjmwJFmkT8wPoqMNxU-21" value="&lt;span style=&quot;font-size: 16px;&quot;&gt;Merge and Pull Request&lt;/span&gt;" style="rounded=1;whiteSpace=wrap;html=1;labelBackgroundColor=none;fillColor=#dae8fc;strokeColor=#6c8ebf;" vertex="1" parent="1">
          <mxGeometry x="600" y="1060" width="290" height="60" as="geometry" />
        </mxCell>
        <mxCell id="DgEjmwJFmkT8wPoqMNxU-45" value="" style="edgeStyle=orthogonalEdgeStyle;rounded=0;orthogonalLoop=1;jettySize=auto;html=1;" edge="1" parent="1" source="DgEjmwJFmkT8wPoqMNxU-22" target="DgEjmwJFmkT8wPoqMNxU-21">
          <mxGeometry relative="1" as="geometry" />
        </mxCell>
        <mxCell id="DgEjmwJFmkT8wPoqMNxU-22" value="&lt;span style=&quot;font-size: 16px;&quot;&gt;Review Changes&lt;/span&gt;" style="rounded=1;whiteSpace=wrap;html=1;labelBackgroundColor=none;fillColor=#dae8fc;strokeColor=#6c8ebf;" vertex="1" parent="1">
          <mxGeometry x="600" y="920" width="290" height="60" as="geometry" />
        </mxCell>
        <mxCell id="DgEjmwJFmkT8wPoqMNxU-48" value="" style="edgeStyle=orthogonalEdgeStyle;rounded=0;orthogonalLoop=1;jettySize=auto;html=1;" edge="1" parent="1" target="DgEjmwJFmkT8wPoqMNxU-24">
          <mxGeometry relative="1" as="geometry">
            <mxPoint x="745" y="1380" as="sourcePoint" />
          </mxGeometry>
        </mxCell>
        <mxCell id="DgEjmwJFmkT8wPoqMNxU-24" value="&lt;font style=&quot;font-size: 16px;&quot;&gt;END&lt;/font&gt;" style="ellipse;whiteSpace=wrap;html=1;fillColor=#10e605;strokeColor=#82b366;" vertex="1" parent="1">
          <mxGeometry x="685" y="1480" width="120" height="80" as="geometry" />
        </mxCell>
        <mxCell id="DgEjmwJFmkT8wPoqMNxU-51" style="edgeStyle=orthogonalEdgeStyle;rounded=0;orthogonalLoop=1;jettySize=auto;html=1;entryX=1;entryY=0.5;entryDx=0;entryDy=0;" edge="1" parent="1" source="DgEjmwJFmkT8wPoqMNxU-41" target="DgEjmwJFmkT8wPoqMNxU-24">
          <mxGeometry relative="1" as="geometry">
            <Array as="points">
              <mxPoint x="1160" y="1520" />
            </Array>
          </mxGeometry>
        </mxCell>
        <mxCell id="DgEjmwJFmkT8wPoqMNxU-41" value="&lt;span style=&quot;font-size: 16px;&quot;&gt;Delete if error&lt;/span&gt;" style="rounded=1;whiteSpace=wrap;html=1;labelBackgroundColor=none;fillColor=#dae8fc;strokeColor=#6c8ebf;" vertex="1" parent="1">
          <mxGeometry x="1000" y="770" width="290" height="60" as="geometry" />
        </mxCell>
        <mxCell id="DgEjmwJFmkT8wPoqMNxU-52" style="edgeStyle=orthogonalEdgeStyle;rounded=0;orthogonalLoop=1;jettySize=auto;html=1;entryX=1;entryY=0.25;entryDx=0;entryDy=0;" edge="1" parent="1" source="DgEjmwJFmkT8wPoqMNxU-49" target="DgEjmwJFmkT8wPoqMNxU-22">
          <mxGeometry relative="1" as="geometry">
            <Array as="points">
              <mxPoint x="1040" y="1370" />
              <mxPoint x="1040" y="935" />
            </Array>
          </mxGeometry>
        </mxCell>
        <mxCell id="DgEjmwJFmkT8wPoqMNxU-49" value="&lt;span style=&quot;font-size: 16px;&quot;&gt;Commit Changes??&lt;/span&gt;" style="rhombus;whiteSpace=wrap;html=1;fillColor=#f8cecc;strokeColor=#b85450;" vertex="1" parent="1">
          <mxGeometry x="610" y="1300" width="270" height="140" as="geometry" />
        </mxCell>
        <mxCell id="DgEjmwJFmkT8wPoqMNxU-53" value="&lt;font style=&quot;font-size: 16px;&quot;&gt;1&lt;/font&gt;" style="text;html=1;strokeColor=none;fillColor=none;align=center;verticalAlign=middle;whiteSpace=wrap;rounded=0;" vertex="1" parent="1">
          <mxGeometry x="-742.5" y="-80" width="60" height="30" as="geometry" />
        </mxCell>
        <mxCell id="DgEjmwJFmkT8wPoqMNxU-54" value="2" style="text;html=1;strokeColor=none;fillColor=none;align=center;verticalAlign=middle;whiteSpace=wrap;rounded=0;" vertex="1" parent="1">
          <mxGeometry x="-742.5" y="50" width="60" height="30" as="geometry" />
        </mxCell>
        <mxCell id="DgEjmwJFmkT8wPoqMNxU-55" value="4" style="text;html=1;strokeColor=none;fillColor=none;align=center;verticalAlign=middle;whiteSpace=wrap;rounded=0;" vertex="1" parent="1">
          <mxGeometry x="-550" y="250" width="60" height="30" as="geometry" />
        </mxCell>
        <mxCell id="DgEjmwJFmkT8wPoqMNxU-56" value="3" style="text;html=1;strokeColor=none;fillColor=none;align=center;verticalAlign=middle;whiteSpace=wrap;rounded=0;" vertex="1" parent="1">
          <mxGeometry x="-732.5" y="190" width="60" height="30" as="geometry" />
        </mxCell>
        <mxCell id="DgEjmwJFmkT8wPoqMNxU-57" value="5" style="text;html=1;strokeColor=none;fillColor=none;align=center;verticalAlign=middle;whiteSpace=wrap;rounded=0;" vertex="1" parent="1">
          <mxGeometry x="-425" y="440" width="60" height="30" as="geometry" />
        </mxCell>
        <mxCell id="DgEjmwJFmkT8wPoqMNxU-59" value="6" style="text;html=1;strokeColor=none;fillColor=none;align=center;verticalAlign=middle;whiteSpace=wrap;rounded=0;" vertex="1" parent="1">
          <mxGeometry x="-732.5" y="400" width="60" height="30" as="geometry" />
        </mxCell>
        <mxCell id="DgEjmwJFmkT8wPoqMNxU-60" value="7" style="text;html=1;strokeColor=none;fillColor=none;align=center;verticalAlign=middle;whiteSpace=wrap;rounded=0;" vertex="1" parent="1">
          <mxGeometry x="-742.5" y="550" width="60" height="30" as="geometry" />
        </mxCell>
        <mxCell id="DgEjmwJFmkT8wPoqMNxU-61" value="8" style="text;html=1;strokeColor=none;fillColor=none;align=center;verticalAlign=middle;whiteSpace=wrap;rounded=0;" vertex="1" parent="1">
          <mxGeometry x="-742.5" y="680" width="60" height="30" as="geometry" />
        </mxCell>
        <mxCell id="DgEjmwJFmkT8wPoqMNxU-62" value="11" style="text;html=1;strokeColor=none;fillColor=none;align=center;verticalAlign=middle;whiteSpace=wrap;rounded=0;" vertex="1" parent="1">
          <mxGeometry x="-540" y="760" width="60" height="30" as="geometry" />
        </mxCell>
        <mxCell id="DgEjmwJFmkT8wPoqMNxU-63" value="9" style="text;html=1;strokeColor=none;fillColor=none;align=center;verticalAlign=middle;whiteSpace=wrap;rounded=0;" vertex="1" parent="1">
          <mxGeometry x="-742.5" y="880" width="60" height="30" as="geometry" />
        </mxCell>
        <mxCell id="DgEjmwJFmkT8wPoqMNxU-64" value="10" style="text;html=1;strokeColor=none;fillColor=none;align=center;verticalAlign=middle;whiteSpace=wrap;rounded=0;" vertex="1" parent="1">
          <mxGeometry x="-455" y="910" width="60" height="30" as="geometry" />
        </mxCell>
        <mxCell id="DgEjmwJFmkT8wPoqMNxU-65" value="12" style="text;html=1;strokeColor=none;fillColor=none;align=center;verticalAlign=middle;whiteSpace=wrap;rounded=0;" vertex="1" parent="1">
          <mxGeometry x="-160" y="760" width="60" height="30" as="geometry" />
        </mxCell>
        <mxCell id="DgEjmwJFmkT8wPoqMNxU-66" value="15" style="text;html=1;strokeColor=none;fillColor=none;align=center;verticalAlign=middle;whiteSpace=wrap;rounded=0;" vertex="1" parent="1">
          <mxGeometry x="180" y="760" width="60" height="30" as="geometry" />
        </mxCell>
        <mxCell id="DgEjmwJFmkT8wPoqMNxU-67" value="13" style="text;html=1;strokeColor=none;fillColor=none;align=center;verticalAlign=middle;whiteSpace=wrap;rounded=0;" vertex="1" parent="1">
          <mxGeometry x="-10" y="880" width="60" height="30" as="geometry" />
        </mxCell>
        <mxCell id="DgEjmwJFmkT8wPoqMNxU-68" value="16" style="text;html=1;strokeColor=none;fillColor=none;align=center;verticalAlign=middle;whiteSpace=wrap;rounded=0;" vertex="1" parent="1">
          <mxGeometry x="540" y="750" width="60" height="30" as="geometry" />
        </mxCell>
        <mxCell id="DgEjmwJFmkT8wPoqMNxU-69" value="14" style="text;html=1;strokeColor=none;fillColor=none;align=center;verticalAlign=middle;whiteSpace=wrap;rounded=0;" vertex="1" parent="1">
          <mxGeometry x="250" y="920" width="60" height="30" as="geometry" />
        </mxCell>
        <mxCell id="DgEjmwJFmkT8wPoqMNxU-70" value="19" style="text;html=1;strokeColor=none;fillColor=none;align=center;verticalAlign=middle;whiteSpace=wrap;rounded=0;" vertex="1" parent="1">
          <mxGeometry x="680" y="870" width="60" height="30" as="geometry" />
        </mxCell>
        <mxCell id="DgEjmwJFmkT8wPoqMNxU-71" value="17" style="text;html=1;strokeColor=none;fillColor=none;align=center;verticalAlign=middle;whiteSpace=wrap;rounded=0;" vertex="1" parent="1">
          <mxGeometry x="930" y="760" width="60" height="30" as="geometry" />
        </mxCell>
        <mxCell id="DgEjmwJFmkT8wPoqMNxU-72" value="18" style="text;html=1;strokeColor=none;fillColor=none;align=center;verticalAlign=middle;whiteSpace=wrap;rounded=0;" vertex="1" parent="1">
          <mxGeometry x="1100" y="870" width="60" height="30" as="geometry" />
        </mxCell>
        <mxCell id="DgEjmwJFmkT8wPoqMNxU-73" value="20" style="text;html=1;strokeColor=none;fillColor=none;align=center;verticalAlign=middle;whiteSpace=wrap;rounded=0;" vertex="1" parent="1">
          <mxGeometry x="680" y="1000" width="60" height="30" as="geometry" />
        </mxCell>
        <mxCell id="DgEjmwJFmkT8wPoqMNxU-75" value="21" style="text;html=1;strokeColor=none;fillColor=none;align=center;verticalAlign=middle;whiteSpace=wrap;rounded=0;" vertex="1" parent="1">
          <mxGeometry x="685" y="1150" width="60" height="30" as="geometry" />
        </mxCell>
        <mxCell id="DgEjmwJFmkT8wPoqMNxU-76" value="22" style="text;html=1;strokeColor=none;fillColor=none;align=center;verticalAlign=middle;whiteSpace=wrap;rounded=0;" vertex="1" parent="1">
          <mxGeometry x="680" y="1270" width="60" height="30" as="geometry" />
        </mxCell>
        <mxCell id="DgEjmwJFmkT8wPoqMNxU-77" value="23" style="text;html=1;strokeColor=none;fillColor=none;align=center;verticalAlign=middle;whiteSpace=wrap;rounded=0;" vertex="1" parent="1">
          <mxGeometry x="970" y="1280" width="60" height="30" as="geometry" />
        </mxCell>
        <mxCell id="DgEjmwJFmkT8wPoqMNxU-78" value="24" style="text;html=1;strokeColor=none;fillColor=none;align=center;verticalAlign=middle;whiteSpace=wrap;rounded=0;" vertex="1" parent="1">
          <mxGeometry x="670" y="1440" width="60" height="30" as="geometry" />
        </mxCell>
      </root>
    </mxGraphModel>
  </diagram>
</mxfile>
